# xmcd CD database file
#
# Track frame offsets:
#	182
#	11197
#	23510
#	33975
#	43005
#	52862
#	63465
#	77465
#	88857
#	99297
#	111005
#	121160
#
# Disc length: 1740 seconds
#
# Revision: 0
# Processed by: cddbd v1.4b42PL0 Copyright (c) Steve Scherf et al.
# Submitted via: CD2WAV32(EN) R3.18
#
DISCID=8606ca0c
DTITLE=Solomon Burke - Greatest Hits
DYEAR=1900
DGENRE=
TTITLE0=Down In The Valley
TTITLE1=Just Out Of Reach (Of My Two Open Arms)
TTITLE2=How Many Times
TTITLE3=Baby (I Wanna Be Loved)
TTITLE4=Gotta Travel On
TTITLE5=Looking For My Baby
TTITLE6=I'm Hanging Up My Heart For You
TTITLE7=Cry To Me
TTITLE8=I Almost Lost My Mind
TTITLE9=A Tear Fell
TTITLE10=Be Bop Grandma
TTITLE11=Keep The Magic Working
EXTD=
EXTT0=
EXTT1=
EXTT2=
EXTT3=
EXTT4=
EXTT5=
EXTT6=
EXTT7=
EXTT8=
EXTT9=
EXTT10=
EXTT11=
PLAYORDER=
